<svg width="22" height="22" viewBox="0 0 22 22" fill="none" xmlns="http://www.w3.org/2000/svg">
<path d="M10.9998 1.8335C7.33317 1.8335 3.6665 2.29183 3.6665 5.50016V14.2085C3.6665 15.9777 5.10567 17.4168 6.87484 17.4168L5.49984 18.7918V19.2502H7.33317L9.1665 17.4168H12.8332L14.6665 19.2502H16.4998V18.7918L15.1248 17.4168C16.894 17.4168 18.3332 15.9777 18.3332 14.2085V5.50016C18.3332 2.29183 14.6665 1.8335 10.9998 1.8335ZM6.87484 15.5835C6.114 15.5835 5.49984 14.9693 5.49984 14.2085C5.49984 13.4477 6.114 12.8335 6.87484 12.8335C7.63567 12.8335 8.24984 13.4477 8.24984 14.2085C8.24984 14.9693 7.63567 15.5835 6.87484 15.5835ZM10.0832 9.16683H5.49984V5.50016H10.0832V9.16683ZM15.1248 15.5835C14.364 15.5835 13.7498 14.9693 13.7498 14.2085C13.7498 13.4477 14.364 12.8335 15.1248 12.8335C15.8857 12.8335 16.4998 13.4477 16.4998 14.2085C16.4998 14.9693 15.8857 15.5835 15.1248 15.5835ZM16.4998 9.16683H11.9165V5.50016H16.4998V9.16683Z" fill="#F0EFD9"/>
</svg>
