<svg width="28" height="28" viewBox="0 0 28 28" fill="none" xmlns="http://www.w3.org/2000/svg">
<g clip-path="url(#clip0_583_913)">
<path d="M19.7427 7.67813C16.7367 4.59557 11.8631 4.59557 8.85716 7.67813C8.14347 8.40501 7.57637 9.2733 7.18918 10.232C6.80199 11.1906 6.60254 12.2203 6.60254 13.2604C6.60254 14.3006 6.80199 15.3303 7.18918 16.2889C7.57637 17.2476 8.14347 18.1158 8.85716 18.8427L14.2994 24.425L19.7427 18.8427C20.4563 18.1158 21.0235 17.2476 21.4106 16.2889C21.7978 15.3303 21.9973 14.3006 21.9973 13.2604C21.9973 12.2203 21.7978 11.1906 21.4106 10.232C21.0235 9.2733 20.4563 8.40501 19.7427 7.67813ZM14.2994 15.8986C13.6567 15.8986 13.0534 15.6378 12.5982 15.1643C12.1477 14.6936 11.8946 14.0558 11.8946 13.3908C11.8946 12.7259 12.1477 12.088 12.5982 11.6173C13.0524 11.1439 13.6567 10.8831 14.2994 10.8831C14.9422 10.8831 15.5465 11.1439 16.0006 11.6173C16.4512 12.088 16.7042 12.7259 16.7042 13.3908C16.7042 14.0558 16.4512 14.6936 16.0006 15.1643C15.5465 15.6378 14.9422 15.8986 14.2994 15.8986Z" fill="#F0EFD9"/>
</g>
<defs>
<clipPath id="clip0_583_913">
<rect width="22.5" height="20.25" fill="white" transform="translate(3.0498 4.1748)"/>
</clipPath>
</defs>
</svg>
